<?xml version="1.0" encoding="UTF-8"?>
<!DOCTYPE svg PUBLIC "-//W3C//DTD SVG 1.1//EN" "http://www.w3.org/Graphics/SVG/1.1/DTD/svg11.dtd">
<!-- Creator: CorelDRAW X6 -->
<svg xmlns="http://www.w3.org/2000/svg" xml:space="preserve" width="16.6667in" height="16.6667in" version="1.1" style="shape-rendering:geometricPrecision; text-rendering:geometricPrecision; image-rendering:optimizeQuality; fill-rule:evenodd; clip-rule:evenodd"
viewBox="0 0 16667 16667"
 xmlns:xlink="http://www.w3.org/1999/xlink">
 <defs>
  <style type="text/css">
   <![CDATA[
    .fil3 {fill:#6A79A8;fill-rule:nonzero}
    .fil6 {fill:#B5BCD4;fill-rule:nonzero}
    .fil2 {fill:#EFEFEF;fill-rule:nonzero}
    .fil5 {fill:#F7F7F7;fill-rule:nonzero}
    .fil1 {fill:#F9F9F9;fill-rule:nonzero}
    .fil4 {fill:#FCFCFC;fill-rule:nonzero}
    .fil7 {fill:#FF9C81;fill-rule:nonzero}
    .fil0 {fill:white;fill-rule:nonzero}
   ]]>
  </style>
 </defs>
 <g id="Layer_x0020_1">
  <metadata id="CorelCorpID_0Corel-Layer"/>
  <polygon class="fil0" points="0,16667 16667,16667 16667,0 0,0 "/>
  <!--<path class="fil1" d="M4971 14371c-294,-64 -3828,-637 -3568,-4864 260,-4227 587,-5498 1961,-5963 1374,-465 4714,-2666 7335,-573 2621,2092 5449,3969 4327,7310 -1122,3341 -1306,4456 -4234,4285 -1276,-74 -2280,-63 -3122,-53 -1090,14 -1909,28 -2698,-143z"/>
  -->
  <path class="fil2" d="M9985 8089c-126,1377 -1350,2395 -2727,2268 -1377,-126 -2395,-1350 -2268,-2727 126,-1377 1350,-2395 2727,-2268 1377,126 2395,1350 2268,2727zm2114 5421c68,-57 107,-135 114,-217 7,-82 -16,-166 -73,-234l-2421 -2910c527,-513 882,-1209 954,-1997 161,-1757 -1137,-3317 -2893,-3478 -1757,-161 -3317,1137 -3478,2893 -161,1757 1137,3317 2893,3478 674,62 1319,-91 1868,-403l151 -100 2434 2926c113,136 315,154 451,41z"/>
  <path class="fil3" d="M4668 6343c-128,272 -243,552 -323,842 -74,268 -99,540 -88,818 21,522 174,1035 439,1485 531,901 1485,1497 2527,1576 657,50 1376,-96 1931,-463 28,-19 -39,-12 -52,-3 -515,340 -1176,478 -1786,441 -522,-32 -1033,-193 -1478,-469 -847,-525 -1416,-1439 -1504,-2433 -27,-301 -15,-606 60,-899 80,-313 203,-615 340,-906 6,-12 -58,-7 -66,11z"/>
  <path class="fil3" d="M9250 10635c315,379 630,757 945,1136 435,522 869,1045 1304,1567 39,47 76,94 116,140 165,189 477,142 597,-73 6,-10 -57,-6 -66,11 -112,201 -345,184 -481,23 -43,-52 -86,-103 -129,-155 -180,-216 -359,-432 -539,-648 -453,-545 -906,-1089 -1359,-1634 -108,-130 -216,-260 -324,-390 -11,-13 -74,10 -63,23z"/>
  <path class="fil3" d="M6206 5722c697,-423 1574,-469 2312,-123 589,276 1056,783 1285,1392 133,353 181,732 148,1107 -1,11 65,3 67,-18 61,-699 -172,-1398 -644,-1918 -479,-528 -1172,-829 -1884,-825 -471,3 -934,138 -1336,382 -28,17 39,11 52,3z"/>
  <path class="fil0" d="M10155 7849c-126,1377 -1350,2395 -2727,2268 -1377,-126 -2395,-1350 -2268,-2727 126,-1377 1350,-2395 2727,-2268 1377,126 2395,1350 2268,2727zm2114 5421c68,-57 107,-135 114,-217 8,-82 -16,-166 -73,-234l-2421 -2910c527,-513 882,-1209 954,-1997 161,-1757 -1137,-3317 -2893,-3478 -1757,-161 -3317,1137 -3478,2893 -161,1757 1137,3317 2893,3478 674,62 1319,-91 1868,-403l151 -100 2434 2926c113,136 315,154 451,41z"/>
  <path class="fil3" d="M12297 13278c147,-131 156,-336 34,-486 -40,-49 -81,-97 -121,-146 -183,-220 -366,-440 -549,-659 -467,-562 -935,-1124 -1402,-1686 -112,-135 -225,-270 -337,-406 -1,8 -2,15 -3,23 522,-512 863,-1190 950,-1917 76,-633 -39,-1281 -330,-1848 -279,-542 -711,-1002 -1237,-1311 -542,-319 -1175,-471 -1802,-439 -616,31 -1218,243 -1720,601 -499,356 -894,853 -1122,1422 -237,591 -295,1249 -162,1872 129,602 435,1162 870,1598 438,439 999,746 1606,875 744,158 1533,49 2204,-310 80,-43 155,-94 230,-144 -18,0 -35,0 -53,1 312,375 624,750 936,1125 447,537 893,1074 1340,1611 49,60 99,119 149,179 131,155 352,178 513,52 36,-28 -19,-46 -44,-27 -143,112 -311,62 -419,-67 -46,-56 -93,-112 -139,-167 -188,-226 -376,-452 -564,-679 -460,-553 -920,-1106 -1381,-1660 -110,-132 -219,-263 -329,-395 -12,-15 -39,-8 -53,1 -1114,737 -2618,648 -3660,-177 -971,-768 -1414,-2063 -1117,-3265 294,-1190 1287,-2128 2492,-2352 1229,-228 2501,317 3199,1350 339,501 531,1097 545,1702 16,703 -202,1402 -621,1967 -102,138 -216,267 -339,387 -6,6 -9,16 -3,23 294,353 587,706 881,1059 442,531 883,1062 1325,1593 61,73 121,146 182,219 10,13 21,25 31,38 106,134 90,316 -37,429 -30,27 35,35 55,17z"/>
  <path class="fil3" d="M10122 7852c-98,1024 -832,1908 -1830,2172 -1008,267 -2095,-153 -2679,-1012 -583,-859 -565,-2028 50,-2866 616,-839 1718,-1209 2714,-902 972,299 1679,1195 1750,2209 9,133 7,267 -5,400 -3,32 65,22 68,-6 93,-1058 -500,-2087 -1469,-2528 -959,-437 -2117,-223 -2862,520 -758,756 -958,1945 -480,2905 472,949 1513,1514 2566,1391 1032,-120 1915,-881 2176,-1888 34,-131 57,-265 69,-400 3,-32 -65,-22 -68,6z"/>
  <path class="fil4" d="M7678 10103c-811,0 -1599,-406 -2064,-1092 -583,-859 -565,-2028 50,-2866 6,-8 12,-16 18,-24 145,-150 307,-282 484,-392 15,0 35,-4 41,-8 387,-235 829,-353 1272,-353 355,0 711,76 1040,230 589,276 1056,783 1285,1392 133,353 181,732 148,1107 0,3 6,5 14,5 5,0 12,-1 18,-2 -29,296 -108,575 -228,830 -327,527 -845,930 -1464,1094 -203,54 -410,80 -614,80z"/>
  <path class="fil5" d="M9756 8930c121,-255 200,-534 228,-830 17,-3 34,-10 35,-21 61,-699 -172,-1398 -644,-1918 -476,-525 -1163,-825 -1871,-825 -5,0 -9,0 -14,0 -471,3 -934,138 -1336,382 -14,8 -6,11 8,11 1,0 2,0 3,0 -177,110 -340,242 -484,392 472,-627 1218,-985 1984,-985 238,0 478,35 712,107 972,299 1679,1195 1750,2209 9,133 7,267 -5,400l0 0c-37,388 -166,756 -366,1078z"/>
  <path class="fil6" d="M9966 8102c-8,0 -14,-2 -14,-5 33,-375 -16,-754 -148,-1107 -229,-609 -696,-1116 -1285,-1392 -329,-154 -685,-230 -1040,-230 -443,0 -885,119 -1272,353 -7,4 -26,7 -41,8 -1,0 -2,0 -3,0 -14,0 -22,-3 -8,-11 402,-244 865,-379 1336,-382 5,0 9,0 14,0 708,0 1394,300 1871,825 472,520 706,1219 644,1918 -1,11 -18,18 -35,21 -7,1 -13,2 -18,2z"/>
  <path class="fil6" d="M7660 10128c-76,0 -154,-3 -231,-11 -1377,-126 -2395,-1350 -2268,-2727 119,-1300 1215,-2279 2496,-2279 76,0 154,3 231,11 1377,126 2395,1350 2268,2727 -119,1300 -1215,2279 -2496,2279zm-1979 -4006c-6,8 -12,16 -18,24 -615,838 -633,2007 -50,2866 466,686 1253,1092 2064,1092 205,0 411,-26 614,-80 620,-164 1137,-567 1464,-1094 200,-322 328,-690 366,-1078l0 0c12,-133 14,-267 5,-400 -71,-1013 -778,-1909 -1750,-2209 -234,-72 -474,-107 -712,-107 -765,0 -1512,358 -1984,985z"/>
  <path class="fil3" d="M7900 5101c-1047,-92 -2076,480 -2534,1429 -464,961 -258,2138 500,2888 755,746 1930,939 2886,480 954,-458 1541,-1483 1434,-2539 -106,-1044 -881,-1936 -1899,-2191 -128,-32 -258,-53 -389,-66 -28,-3 -70,37 -25,42 1023,98 1900,836 2170,1828 273,1001 -122,2096 -972,2692 -857,600 -2028,582 -2871,-38 -831,-611 -1204,-1701 -924,-2693 280,-988 1174,-1722 2199,-1794 132,-9 265,-7 397,5 28,2 70,-38 25,-42z"/>
  <path class="fil3" d="M8541 8279c-138,-168 -348,-291 -552,-354 -344,-105 -725,-37 -1024,158 -70,45 -140,98 -196,160 -28,31 37,37 55,17 132,-147 331,-249 519,-300 341,-92 697,-12 976,200 57,44 114,92 160,148 18,21 82,-4 62,-28z"/>
  <path class="fil3" d="M6902 7266c0,-69 -56,-126 -125,-126 -69,0 -126,56 -126,125 0,69 56,126 125,126 69,0 126,-56 126,-125z"/>
  <path class="fil3" d="M8625 7275c0,-69 -56,-126 -125,-126 -69,0 -126,56 -126,125 0,69 56,126 125,126 69,0 126,-56 126,-125z"/>
  <path class="fil7" d="M6512 7831c1,134 -79,244 -179,245 -101,1 -183,-107 -185,-241 -1,-134 79,-244 179,-245 101,-1 183,107 185,241z"/>
  <path class="fil7" d="M9122 7803c1,134 -79,244 -179,245 -101,1 -183,-107 -185,-241 -1,-134 79,-244 179,-245 101,-1 183,107 185,241z"/>
 </g>
</svg>
